<svg width="521" height="94" viewBox="0 0 521 94" xmlns="http://www.w3.org/2000/svg">

 <g>
  <title>background</title>
  <rect fill="none" id="canvas_background" height="96" width="523" y="-1" x="-1"/>
 </g>
 <g>
  <title>Layer 1</title>
  <g id="svg_42">
   <g id="svg_2">
    <g id="svg_3">
     <path id="svg_4" d="m124.553009,71.599998l0,-20.567001c0,-7.224998 2.452988,-12.003998 7.294006,-14.206997c1.737,-0.799999 4.175995,-1.137001 5.764984,-1.137001c1.847015,0 3.549011,0.325001 5.057999,0.969002c1.514999,0.650997 2.824005,1.563 3.897018,2.717999c1.069,1.153 1.901001,2.517998 2.477982,4.062004c0.572006,1.525993 0.861008,3.182999 0.861008,4.925995c0,1.771004 -0.289001,3.446999 -0.860001,4.981003c-0.580002,1.543999 -1.414993,2.901001 -2.483002,4.034996c-1.072998,1.139999 -2.384003,2.045006 -3.893997,2.688004c-1.51001,0.645996 -3.214005,0.972 -5.057999,0.972c-1.73201,0 -3.389008,-0.369003 -4.92601,-1.103004c-0.834,-0.395996 -1.570999,-0.878998 -2.203995,-1.438995l0,13.101997l-5.927994,0zm12.534988,-30.266998c-1.031998,0 -1.964005,0.176003 -2.768005,0.523003c-0.811005,0.348 -1.505005,0.829994 -2.061005,1.424995c-0.550995,0.594002 -0.988998,1.331001 -1.302994,2.199005c-0.313995,0.870995 -0.472992,1.839996 -0.472992,2.883995c0,1.047005 0.158997,2.020004 0.472992,2.886002c0.311996,0.863998 0.751007,1.605003 1.305008,2.199997c0.550995,0.591003 1.242996,1.069 2.056992,1.421005c0.813995,0.350998 1.744995,0.526001 2.770004,0.526001c1.022003,0 1.955994,-0.176003 2.770996,-0.526001c0.811996,-0.352005 1.503006,-0.830002 2.057007,-1.421005c0.552994,-0.599998 0.992996,-1.338997 1.302994,-2.195c0.313995,-0.878998 0.473007,-1.848 0.473007,-2.890999c0,-1.040001 -0.159012,-2.008995 -0.473007,-2.883995c-0.309998,-0.864006 -0.75,-1.601006 -1.302994,-2.199005c-0.557999,-0.595001 -1.25,-1.076996 -2.057007,-1.424995c-0.820984,-0.350006 -1.725983,-0.523003 -2.770996,-0.523003l0,0z" fill="#333333"/>
    </g>
    <g id="svg_5">
     <path id="svg_6" d="m165.365997,61.041c-1.78801,0 -3.484009,-0.332001 -5.037003,-0.993004c-1.544006,-0.655998 -2.910995,-1.561996 -4.061996,-2.692993c-1.156006,-1.142006 -2.074005,-2.495003 -2.729004,-4.028c-0.658005,-1.537003 -0.990997,-3.208 -0.990997,-4.962006c0,-1.75 0.332993,-3.416 0.992996,-4.945c0.658005,-1.517998 1.574005,-2.866997 2.721008,-4.015999c1.149994,-1.146996 2.518997,-2.064003 4.070999,-2.718998c1.549988,-0.658001 3.244995,-0.995003 5.033997,-0.995003c1.787003,0 3.481003,0.337002 5.035004,0.995003c1.543991,0.653996 2.913986,1.570995 4.066986,2.718998c1.142014,1.143997 2.058014,2.495003 2.718002,4.015999c0.662003,1.526001 0.999008,3.190002 0.999008,4.945c0,1.757004 -0.335999,3.425003 -0.997009,4.967003c-0.655991,1.537003 -1.574997,2.889999 -2.724991,4.023003c-1.156998,1.136993 -2.524002,2.042 -4.065002,2.692993c-1.552994,0.661003 -3.246994,0.993004 -5.031998,0.993004l0,0zm0,-19.708c-1.033005,0 -1.964005,0.176003 -2.768005,0.523003c-0.809998,0.348 -1.503998,0.829994 -2.061996,1.427994c-0.550003,0.591003 -0.988998,1.328003 -1.305008,2.200005c-0.313995,0.871002 -0.470993,1.839996 -0.470993,2.879997c0,1.039001 0.158997,2.012001 0.473007,2.890999c0.311996,0.859001 0.752991,1.601006 1.306992,2.195c0.554001,0.591003 1.246002,1.069 2.057007,1.421005c0.812988,0.350998 1.744995,0.526001 2.769989,0.526001c1.024002,0 1.956009,-0.176003 2.766998,-0.526001c0.812012,-0.352005 1.505005,-0.830002 2.059006,-1.421005c0.555008,-0.599998 0.994995,-1.338997 1.302994,-2.195c0.314011,-0.878998 0.475006,-1.848 0.475006,-2.890999c0,-1.040001 -0.160995,-2.008995 -0.475006,-2.883995c-0.30899,-0.859001 -0.747986,-1.601006 -1.302994,-2.199005c-0.556992,-0.595001 -1.250992,-1.076996 -2.059006,-1.424995c-0.804977,-0.347 -1.737976,-0.523003 -2.76799,-0.523003l0,0z" fill="#333333"/>
    </g>
    <g id="svg_7">
     <polygon id="svg_8" points="203.218017578125,60.472999572753906 197.8380126953125,45.236000061035156 192.97500610351562,60.472999572753906 187.1610107421875,60.472999572753906 179.19200134277344,36.26300048828125 185.7480010986328,36.26300048828125 190.29901123046875,51.32099914550781 195.1070098876953,36.26300048828125 200.81900024414062,36.26300048828125 205.92901611328125,51.34100341796875 210.2760009765625,36.26300048828125 216.54299926757812,36.26300048828125 208.72900390625,60.472999572753906 " fill="#333333"/>
    </g>
    <g id="svg_9">
     <path id="svg_10" d="m229.529999,61.041c-1.880005,0 -3.613007,-0.324997 -5.153992,-0.972c-1.542999,-0.639 -2.870026,-1.543999 -3.945007,-2.693001c-1.072998,-1.139999 -1.90802,-2.498001 -2.479004,-4.029999c-0.571991,-1.529999 -0.862,-3.209999 -0.862,-4.981003c0,-1.776001 0.31601,-3.454994 0.940002,-4.997002c0.630005,-1.548996 1.505005,-2.901993 2.60199,-4.022995c1.101013,-1.134003 2.433014,-2.039001 3.955017,-2.686001c1.524994,-0.644001 3.203003,-0.969002 4.990997,-0.969002c2.117004,0 3.946991,0.381001 5.438995,1.137001c1.473999,0.740002 2.710999,1.734997 3.678009,2.962002c0.952972,1.212997 1.648987,2.584 2.074982,4.091995c0.416992,1.488007 0.626007,3.014 0.626007,4.532005l0,2.345001l-18.031982,0c0.080994,0.531998 0.240997,1.020996 0.487976,1.484993c0.380005,0.714005 0.877014,1.328003 1.481018,1.821007c0.617004,0.504997 1.347992,0.903999 2.177002,1.187996c0.841003,0.292 1.687988,0.433998 2.591003,0.433998c1.171997,0 2.192993,-0.268997 3.035004,-0.799995c0.901001,-0.564003 1.746979,-1.330002 2.516998,-2.280998l0.502991,-0.620003l4.524994,3.467003l-0.505005,0.653999c-2.535004,3.276001 -6.11499,4.934998 -10.645996,4.934998l0,0zm5.584991,-15.355003c-0.066986,-0.542 -0.181,-1.057999 -0.343994,-1.531998c-0.226013,-0.668999 -0.575989,-1.270996 -1.041992,-1.783997c-0.460022,-0.497002 -1.026001,-0.883003 -1.731018,-1.175003c-0.707001,-0.288002 -1.553986,-0.437996 -2.518982,-0.437996c-0.923004,0 -1.778015,0.179993 -2.539001,0.523994c-0.783997,0.358002 -1.425018,0.803001 -1.960022,1.363998c-0.53299,0.561005 -0.951996,1.192001 -1.242981,1.878006c-0.167999,0.389 -0.287994,0.776001 -0.356995,1.161995l11.734985,0l0,0.000999z" fill="#333333"/>
    </g>
    <g id="svg_11">
     <path id="svg_12" d="m244.959015,60.473l0,-13.226997c0,-10.729004 8.76001,-11.564003 11.446014,-11.564003l0.421997,0.003002c0.867981,0.004997 1.595001,0.112 2.252991,0.327l0.593994,0.189999l-0.26001,6.265003l-0.985992,-0.263c-0.329987,-0.081001 -0.660004,-0.161003 -0.988983,-0.221001c-0.294006,-0.053001 -0.597015,-0.082001 -0.89801,-0.082001c-1.877991,0 -3.256012,0.492996 -4.210999,1.502998c-0.957001,1.014999 -1.44101,2.667 -1.44101,4.914001l0,12.153999l-5.929993,0l0,0.000999z" fill="#333333"/>
    </g>
    <g id="svg_13">
     <path id="svg_14" d="m459.11499,60.473l0,-13.226997c0,-10.729004 8.763,-11.564003 11.447998,-11.564003l0.424011,0.003002c0.869995,0.004997 1.594971,0.112 2.253967,0.327l0.596008,0.189999l-0.263,6.265003l-0.987,-0.263c-0.328979,-0.081001 -0.658997,-0.161003 -0.987976,-0.221001c-0.291016,-0.053001 -0.598022,-0.082001 -0.893005,-0.082001c-1.882019,0 -3.262024,0.492996 -4.218994,1.502998c-0.955017,1.014999 -1.439026,2.667 -1.439026,4.914001l0,12.153999l-5.932983,0l0,0.000999z" fill="#333333"/>
    </g>
    <g id="svg_15">
     <path id="svg_16" d="m272.890991,61.041c-1.876007,0 -3.609009,-0.324997 -5.151001,-0.972c-1.542999,-0.639 -2.872986,-1.543999 -3.947998,-2.693001c-1.070007,-1.139999 -1.903992,-2.498001 -2.479004,-4.029999c-0.572998,-1.534004 -0.863983,-3.209999 -0.863983,-4.981003c0,-1.780998 0.316986,-3.466995 0.946991,-5.000999c0.626984,-1.544998 1.501984,-2.897995 2.597992,-4.019997c1.101013,-1.134003 2.431,-2.039001 3.955994,-2.686001c1.521027,-0.644001 3.201019,-0.969002 4.986023,-0.969002c2.117981,0 3.950989,0.381001 5.444977,1.137001c1.469025,0.740002 2.708008,1.734997 3.675018,2.957996c0.954987,1.212006 1.652985,2.588005 2.078979,4.096001c0.413025,1.492004 0.623016,3.018005 0.623016,4.532005l0,2.345001l-18.033997,0c0.079987,0.531998 0.242981,1.020996 0.48999,1.484993c0.378998,0.714005 0.877014,1.328003 1.481995,1.821007c0.615021,0.504997 1.345001,0.903999 2.175018,1.187996c0.828003,0.289001 1.699005,0.433998 2.591003,0.433998c1.187988,0 2.181976,-0.260994 3.03299,-0.799995c0.904999,-0.568001 1.751007,-1.334999 2.515991,-2.281006l0.505005,-0.619995l4.528015,3.466995l-0.506012,0.654007c-2.535004,3.277 -6.117004,4.935997 -10.647003,4.935997l0,0zm5.587006,-15.355003c-0.067017,-0.549995 -0.181,-1.057999 -0.34201,-1.529999c-0.234985,-0.689995 -0.575989,-1.272995 -1.044006,-1.785995c-0.449982,-0.490005 -1.033997,-0.883003 -1.732971,-1.175003c-0.70401,-0.288002 -1.552002,-0.437996 -2.517029,-0.437996c-0.925995,0 -1.777985,0.179993 -2.537994,0.523994c-0.78598,0.358002 -1.427979,0.803001 -1.959991,1.363998c-0.532013,0.561005 -0.953003,1.192001 -1.247986,1.881004c-0.167023,0.389999 -0.28302,0.778 -0.355011,1.158997l11.737,0l0,0.000999z" fill="#333333"/>
    </g>
    <g id="svg_17">
     <path id="svg_18" d="m299.524994,61.041c-1.851013,0 -3.554993,-0.324997 -5.062988,-0.972c-1.506012,-0.643997 -2.818024,-1.556 -3.897003,-2.720001c-1.078003,-1.162003 -1.90802,-2.520996 -2.472015,-4.034996c-0.572998,-1.496002 -0.86499,-3.163002 -0.86499,-4.950005c0,-1.783997 0.291992,-3.459999 0.865997,-4.981995c0.563995,-1.529007 1.397003,-2.887001 2.473999,-4.030006c1.072998,-1.138 2.382996,-2.042 3.894989,-2.688999c1.508026,-0.646999 3.212006,-0.973 5.063019,-0.973c1.73999,0 3.394989,0.371002 4.923981,1.103001c0.834015,0.400002 1.571014,0.884003 2.203003,1.440002l0,-13.100002l5.928009,0l0,24.559002c-0.001984,6.791 -5.248993,11.348999 -13.056,11.348999l0,0zm0.52301,-19.708c-1.046997,0 -1.953003,0.172997 -2.769989,0.523003c-0.811005,0.351997 -1.505005,0.829994 -2.057007,1.424995c-0.550018,0.586998 -0.989014,1.328003 -1.30899,2.203003c-0.312012,0.871002 -0.473022,1.843002 -0.473022,2.879997c0,1.034004 0.161011,2.008003 0.477997,2.890999c0.314026,0.862999 0.753998,1.604004 1.304016,2.195c0.550995,0.591003 1.242981,1.069 2.057007,1.421005c0.811981,0.350998 1.744995,0.526001 2.769989,0.526001c1.02301,0 1.954987,-0.176003 2.770996,-0.526001c0.812012,-0.352005 1.502991,-0.830002 2.057007,-1.421005c0.553986,-0.599998 0.993011,-1.335999 1.302002,-2.195c0.312988,-0.870995 0.475006,-1.843994 0.475006,-2.890999c0,-1.043999 -0.161011,-2.013 -0.475006,-2.883995c-0.312012,-0.868004 -0.748016,-1.605003 -1.302002,-2.199005c-0.557007,-0.595001 -1.248993,-1.076996 -2.057007,-1.424995s-1.73999,-0.523003 -2.770996,-0.523003l0,0z" fill="#333333"/>
    </g>
    <g id="svg_19">
     <path id="svg_20" d="m339.320007,61.041c-7.812012,0 -13.059998,-4.557999 -13.059998,-11.349998l0,-24.558002l5.923981,0l0,13.104c0.636017,-0.560997 1.377014,-1.043999 2.215027,-1.444c1.521973,-0.730999 3.178986,-1.103001 4.92099,-1.103001c1.854004,0 3.557007,0.325001 5.059998,0.969002c1.515991,0.650997 2.822998,1.559002 3.894012,2.692997c1.061981,1.125 1.895996,2.481003 2.478973,4.035004c0.573029,1.531998 0.862,3.208 0.862,4.977997c0,1.775002 -0.288971,3.444 -0.862,4.955002c-0.578979,1.528999 -1.41098,2.883003 -2.477997,4.029999c-1.072998,1.164001 -2.385986,2.076004 -3.89798,2.720001c-1.503998,0.646004 -3.205017,0.971001 -5.057007,0.971001l0,0zm-0.527008,-19.708c-1.031982,0 -1.958984,0.176003 -2.764008,0.523003c-0.807983,0.348 -1.502991,0.829994 -2.063995,1.427994c-0.553986,0.591003 -0.987,1.328003 -1.298004,2.193001c-0.317993,0.886002 -0.481995,1.854004 -0.481995,2.887001c0,1.034004 0.164001,2.005005 0.481995,2.886002c0.308014,0.863998 0.744019,1.600998 1.303009,2.199997c0.562012,0.602005 1.237,1.064003 2.057007,1.421005c0.812988,0.350998 1.742004,0.526001 2.766998,0.526001c1.040009,0 1.945984,-0.171005 2.770996,-0.526001c0.819,-0.356003 1.490997,-0.819 2.062012,-1.421005c0.552002,-0.599998 0.98999,-1.338997 1.300995,-2.199997c0.313995,-0.877998 0.475983,-1.851997 0.475983,-2.886002c0,-1.036995 -0.16098,-2.008995 -0.475983,-2.883995c-0.311005,-0.859001 -0.748993,-1.601006 -1.306,-2.199005c-0.567993,-0.605995 -1.240997,-1.072998 -2.054993,-1.424995c-0.817017,-0.350006 -1.72702,-0.523003 -2.774017,-0.523003l0,0z" fill="#333333"/>
    </g>
    <g id="svg_21">
     <path id="svg_22" d="m356.79599,71.894997c-0.674988,0 -1.358002,-0.037994 -2.027985,-0.118996c-0.770996,-0.101997 -1.45401,-0.288002 -2.107025,-0.565002l-0.573975,-0.247002l0.751984,-5.574997l0.983002,0.403c0.751007,0.309998 1.511993,0.468002 2.256012,0.468002c0.561981,0 1.035004,-0.07 1.404999,-0.214005c0.345978,-0.129997 0.639984,-0.317001 0.89798,-0.575996c0.269012,-0.272003 0.5,-0.593002 0.684021,-0.953003c0.204987,-0.417999 0.415985,-0.897995 0.628998,-1.446999l1.264008,-3.268997l-9.726013,-23.537003l6.748993,0l6.175995,16.203003l5.868011,-16.203003l6.399994,0l-11.152985,28.541c-0.369019,0.953003 -0.778015,1.880997 -1.218018,2.761002c-0.457001,0.893997 -1.005981,1.658997 -1.630981,2.283997c-0.661011,0.658005 -1.45401,1.167999 -2.356018,1.514999c-0.905975,0.354004 -2.002991,0.529999 -3.270996,0.529999l0,0z" fill="#333333"/>
    </g>
    <g id="svg_23">
     <path id="svg_24" d="m395.213989,61.041c-1.96698,0 -3.729004,-0.306 -5.235992,-0.915001c-1.552002,-0.628998 -2.942017,-1.776001 -4.140015,-3.422997l-0.455994,-0.625l4.410004,-3.635002l0.526001,0.530998c0.649994,0.647003 1.386993,1.234001 2.190979,1.742004c0.718018,0.453995 1.627014,0.681 2.70401,0.681c0.481995,0 0.980988,-0.048004 1.485016,-0.148003c0.461975,-0.090004 0.868988,-0.236 1.243988,-0.441002c0.321991,-0.181 0.588013,-0.407997 0.774994,-0.666c0.170013,-0.227997 0.248993,-0.483002 0.248993,-0.778c0,-0.421997 -0.11499,-0.738998 -0.368988,-0.998001c-0.321014,-0.339996 -0.70401,-0.598 -1.160004,-0.792999c-0.513,-0.220001 -1.057007,-0.395996 -1.622986,-0.527c-0.609009,-0.139 -1.144012,-0.257996 -1.609009,-0.351997c-0.96701,-0.229004 -1.876007,-0.493004 -2.735016,-0.790001c-0.894989,-0.309998 -1.705994,-0.731003 -2.412994,-1.259003c-0.731995,-0.546997 -1.321991,-1.248993 -1.756989,-2.090996c-0.44101,-0.848999 -0.670013,-1.892998 -0.670013,-3.094002c0,-1.305 0.286011,-2.472 0.848999,-3.473999c0.546021,-0.972 1.283997,-1.791 2.192017,-2.434998c0.881989,-0.620003 1.895996,-1.096001 3.015991,-1.401001c1.100006,-0.308002 2.223999,-0.461002 3.338013,-0.461002c1.640991,0 3.220978,0.311001 4.694,0.920002c1.539001,0.628998 2.792999,1.697998 3.716003,3.179001l0.397003,0.639999l-4.572998,3.456001l-0.499023,-0.629005c-0.436981,-0.545998 -0.98999,-1.013 -1.641998,-1.390999c-0.616974,-0.351997 -1.398987,-0.530998 -2.326996,-0.530998c-0.871979,0 -1.623993,0.18 -2.234985,0.530998c-0.494019,0.283005 -0.707001,0.632004 -0.707001,1.171005c0,0.448997 0.123993,0.772995 0.389984,1.023994c0.357025,0.344002 0.783997,0.625 1.275024,0.833c0.529999,0.231003 1.103973,0.407005 1.712982,0.524002c0.667999,0.124001 1.244995,0.238998 1.723999,0.335999c0.976013,0.236 1.88501,0.515999 2.729004,0.845001c0.895996,0.351997 1.684998,0.819 2.338989,1.388c0.670013,0.584 1.20401,1.297997 1.585999,2.127998c0.390015,0.849998 0.574005,1.833 0.574005,3.011002c0,1.414001 -0.30899,2.651001 -0.919006,3.683998c-0.608978,1.010002 -1.398987,1.845001 -2.35199,2.477005c-0.934998,0.619995 -2.009003,1.080994 -3.194,1.353996c-1.156982,0.266998 -2.335999,0.402 -3.5,0.402l0,0z" fill="#333333"/>
    </g>
    <g id="svg_25">
     <path id="svg_26" d="m419.901001,61.041c-1.881012,0 -3.613007,-0.324997 -5.153992,-0.972c-1.541016,-0.639 -2.872009,-1.543999 -3.947998,-2.688004c-1.070007,-1.136993 -1.904022,-2.494995 -2.476013,-4.034996c-0.575989,-1.534004 -0.867981,-3.209999 -0.867981,-4.981003c0,-1.769997 0.317993,-3.454994 0.945984,-5.000999c0.628998,-1.544998 1.502991,-2.897995 2.598999,-4.019997c1.104004,-1.137001 2.438019,-2.039001 3.959991,-2.686001c1.519012,-0.644001 3.196014,-0.969002 4.983002,-0.969002c2.120026,0 3.951019,0.381001 5.440002,1.137001c1.466003,0.731998 2.708008,1.731998 3.680023,2.957996c0.949982,1.209 1.648987,2.585007 2.075989,4.096001c0.411011,1.480003 0.619995,3.003006 0.619995,4.532005l0,2.345001l-18.027008,0c0.080017,0.534996 0.240997,1.024994 0.484009,1.484993c0.393005,0.729004 0.878998,1.323006 1.487,1.816002c0.618011,0.510002 1.347992,0.909004 2.173004,1.193001c0.832001,0.289001 1.697998,0.433998 2.592987,0.433998c1.188019,0 2.180023,-0.260994 3.036011,-0.799995c0.908997,-0.570999 1.753998,-1.340004 2.51001,-2.277l0.504974,-0.624001l4.528015,3.466995l-0.505005,0.654007c-2.529999,3.277 -6.113983,4.935997 -10.641998,4.935997l0,0zm5.583008,-15.355003c-0.063019,-0.536995 -0.179016,-1.055 -0.341003,-1.536995c-0.235016,-0.684006 -0.575012,-1.266998 -1.042999,-1.776001c-0.463989,-0.5 -1.029999,-0.886002 -1.734009,-1.178001c-0.703003,-0.288002 -1.552002,-0.437996 -2.518005,-0.437996c-0.922974,0 -1.777985,0.179993 -2.540985,0.523994c-0.779999,0.358002 -1.42099,0.803001 -1.960999,1.363998c-0.533997,0.565002 -0.951019,1.200005 -1.23999,1.878006c-0.167023,0.389 -0.286011,0.780998 -0.354004,1.161995l11.731995,0l0,0.000999z" fill="#333333"/>
    </g>
    <g id="svg_27">
     <path id="svg_28" d="m444.878998,61.112c-0.588013,0 -1.101013,-0.025002 -1.490997,-0.047997c-0.218994,-0.012001 -0.395996,-0.023003 -0.524017,-0.023003c-1.121979,0 -2.209991,-0.155998 -3.238983,-0.463997c-1.046997,-0.314003 -1.980011,-0.793007 -2.774017,-1.432007c-0.807983,-0.642998 -1.451996,-1.450996 -1.914001,-2.395996c-0.463989,-0.943001 -0.698975,-2.050003 -0.698975,-3.291c0,-1.624001 0.375,-3.011002 1.109985,-4.118004c0.730011,-1.099998 1.722992,-1.997993 2.953003,-2.669998c1.217987,-0.669998 2.596008,-1.133995 4.207001,-1.421997c1.536011,-0.279999 3.208984,-0.418999 4.975006,-0.418999l2.320007,0l0,-0.130005c0,-0.467995 -0.09201,-0.936996 -0.278015,-1.421997c-0.175995,-0.452003 -0.455994,-0.883003 -0.828003,-1.271004c-0.360992,-0.377998 -0.812012,-0.672997 -1.378998,-0.896996c-0.570984,-0.232002 -1.269989,-0.351997 -2.074005,-0.351997c-0.743988,0 -1.406982,0.070999 -1.968994,0.212997c-0.561005,0.150002 -1.082001,0.333 -1.544006,0.545998c-0.446991,0.214005 -0.858978,0.460999 -1.222992,0.741005l-1.776001,1.349998l-3.660004,-3.799004l0.619995,-0.568001c1.281006,-1.182999 2.787018,-2.081001 4.473022,-2.670998c1.667999,-0.584 3.360992,-0.879002 5.03299,-0.879002c1.738983,0 3.261993,0.225002 4.527985,0.661003c1.326019,0.468998 2.377014,1.065998 3.213989,1.844997c0.852997,0.773003 1.490997,1.686005 1.899017,2.695999c0.375,0.935005 0.578003,1.918999 0.604004,2.928001l0.001953,6.340004c0,4.288994 -1.31897,7.375 -3.920959,9.176994c-1.701996,1.177002 -3.935974,1.775002 -6.644989,1.775002l0,0zm3.459015,-11.496002c-0.951996,0 -1.976013,0.053001 -3.036987,0.157005c-0.976013,0.104996 -1.889008,0.307999 -2.708008,0.602997c-0.751007,0.271004 -1.368011,0.653999 -1.830994,1.129997c-0.402008,0.418007 -0.598999,0.945 -0.598999,1.618004c0,1.358002 0.531982,1.862999 0.934998,2.125c0.733002,0.478996 1.772003,0.722 3.095978,0.722c1.044006,0 1.933014,-0.173004 2.646027,-0.513c0.715973,-0.344002 1.278992,-0.777 1.714996,-1.319c0.436005,-0.546997 0.752991,-1.164001 0.944,-1.836998c0.201996,-0.703003 0.302979,-1.402 0.302979,-2.079002l0,-0.606003l-1.463989,0l0,-0.000999z" fill="#333333"/>
    </g>
    <g id="svg_29">
     <path id="svg_30" d="m487.484985,61.041c-1.838013,0 -3.554016,-0.306 -5.093994,-0.915001c-1.546997,-0.610001 -2.895996,-1.478996 -4.012024,-2.581001c-1.125977,-1.106995 -2.006958,-2.452995 -2.612976,-3.999001c-0.606018,-1.517998 -0.911987,-3.229996 -0.911987,-5.084999c0,-1.858002 0.305969,-3.575996 0.911987,-5.112999c0.609009,-1.558998 1.47998,-2.919998 2.588013,-4.034996c1.09198,-1.113007 2.43396,-2.003006 3.981995,-2.632004c1.529968,-0.625 3.261963,-0.942001 5.14801,-0.942001c1.747986,0 3.438965,0.314003 5.031982,0.935001c1.620972,0.636997 3.046021,1.612003 4.232971,2.901997l0.561035,0.610001l-4.436035,4.042999l-0.553955,-0.577995c-0.729004,-0.750999 -1.494019,-1.327003 -2.278015,-1.715004c-0.754028,-0.370995 -1.682007,-0.556999 -2.755005,-0.556999c-1.041016,0 -1.948975,0.186005 -2.705994,0.560005c-0.757996,0.366997 -1.397034,0.882996 -1.908997,1.532997c-0.523987,0.662003 -0.924988,1.438004 -1.192993,2.304001c-0.276001,0.886002 -0.419006,1.821999 -0.419006,2.782997c0,0.931 0.161011,1.834999 0.476013,2.685005c0.313965,0.838997 0.755981,1.574997 1.311951,2.187996c0.554016,0.609001 1.229004,1.095001 2.012024,1.443001c0.778015,0.347 1.677002,0.522003 2.664001,0.522003c1.075989,0 1.994995,-0.183006 2.72998,-0.554001c0.76001,-0.384003 1.460999,-0.938004 2.138,-1.693001l0.577026,-0.646004l4.21698,4.210999l-0.521973,0.579002c-1.217041,1.339005 -2.631042,2.312004 -4.217041,2.888c-1.565002,0.570999 -3.234985,0.859001 -4.961975,0.859001l0,0z" fill="#333333"/>
    </g>
    <g id="svg_31">
     <path id="svg_32" d="m515.159973,60.473l0,-14.155998c0,-0.945 -0.127014,-1.75 -0.369995,-2.400002c-0.242004,-0.625 -0.564026,-1.138 -0.950012,-1.511002c-0.380981,-0.370995 -0.828003,-0.639999 -1.325012,-0.805c-0.53595,-0.179001 -1.097961,-0.268997 -1.671997,-0.268997c-0.805969,0 -1.521973,0.124001 -2.188965,0.373001c-0.637024,0.236 -1.187988,0.610001 -1.690002,1.147995c-0.483032,0.524002 -0.868042,1.216003 -1.14502,2.058006c-0.291992,0.848999 -0.437012,1.895996 -0.437012,3.117996l0,12.442001l-5.932007,0l0,-35.34l5.932007,0l0,13.010998c0.478027,-0.460999 1.040039,-0.873001 1.679016,-1.230999c1.450989,-0.811001 3.142029,-1.223 5.021973,-1.223c1.152039,0 2.286011,0.181 3.371033,0.542c1.096985,0.362999 2.080017,0.942997 2.921997,1.719997c0.838989,0.790001 1.505005,1.796005 1.989014,2.985001c0.479004,1.187004 0.724976,2.595001 0.724976,4.188004l0,15.348999l-5.929993,0l0,0.000999z" fill="#333333"/>
    </g>
   </g>
   <g id="svg_33">
    <g id="svg_34">
     <path id="svg_35" d="m57.578995,51.421997c-0.08699,0.288002 -0.182999,0.562004 -0.299988,0.833c-0.186005,0.453003 -0.050003,1.155006 0.348999,1.588005l1.103989,1.187996c0.397003,0.437004 0.368011,1.104004 -0.061996,1.505005l-3.206993,2.960999c-0.431999,0.402 -1.104012,0.372002 -1.500999,-0.062004l-1.112999,-1.196999c-0.401009,-0.432999 -1.164009,-0.594002 -1.728004,-0.426003c-0.440002,0.140007 -0.884003,0.239006 -1.341003,0.308006c-0.582001,0.089996 -1.199005,0.554001 -1.378006,1.116997l-0.478989,1.548004c-0.175011,0.561996 -0.773003,0.876999 -1.335007,0.702995l-4.164993,-1.297997c-0.564011,-0.171005 -0.878006,-0.765999 -0.701004,-1.333l0.486,-1.563004c0.174004,-0.561996 -0.068001,-1.299995 -0.496002,-1.700996c-0.338997,-0.316002 -0.649994,-0.652 -0.931999,-1.018005c-0.365005,-0.455994 -1.081993,-0.758995 -1.655998,-0.631996l-1.588005,0.360001c-0.57399,0.126999 -1.141991,-0.229004 -1.273003,-0.808998l-0.958992,-4.251007c-0.132996,-0.570999 0.229004,-1.144997 0.802994,-1.273994l1.598,-0.362999c0.574013,-0.132004 1.080002,-0.620003 1.183006,-1.088005c0.061005,-0.280998 0.134003,-0.559998 0.218994,-0.835999c0.089005,-0.288002 0.19001,-0.565002 0.300003,-0.835999c0.19101,-0.453003 0.055008,-1.148003 -0.340996,-1.583l-1.104996,-1.199997c-0.39901,-0.425003 -0.374001,-1.102005 0.05999,-1.496002l3.207001,-2.964005c0.431007,-0.404999 1.102005,-0.371994 1.501007,0.057007l1.11499,1.206993c0.39901,0.43 1.159012,0.591003 1.722,0.418007c0.437012,-0.127007 0.888,-0.233002 1.341011,-0.303001c0.583,-0.088005 1.202995,-0.554001 1.37999,-1.116005l0.48101,-1.548996c0.172989,-0.565002 0.769989,-0.875999 1.330994,-0.703003l4.171997,1.296001c0.562012,0.174999 0.870003,0.766003 0.697006,1.331997l-0.483002,1.562004c-0.175995,0.560997 0.067001,1.302002 0.496002,1.704002c0.330994,0.316994 0.646004,0.658997 0.929001,1.016998c0.369003,0.462997 1.084,0.758995 1.655991,0.630997l1.588013,-0.358002c0.570992,-0.130997 1.139999,0.231003 1.270996,0.803001l0.959999,4.257004c0.133995,0.583 -0.226006,1.146996 -0.799995,1.270996l-1.598007,0.363998c-0.576004,0.129005 -1.083992,0.623001 -1.182999,1.090004c-0.063004,0.281998 -0.134003,0.561996 -0.225006,0.838997zm-8.118988,-6.454994c-1.980003,-0.616005 -4.084,0.492996 -4.700012,2.472c-0.613998,1.973999 0.492004,4.078995 2.468002,4.695999c1.983009,0.611 4.083008,-0.491005 4.699997,-2.472c0.616013,-1.978004 -0.488998,-4.078003 -2.467987,-4.695999z" fill="#808080"/>
    </g>
    <g id="svg_36">
     <path id="svg_37" d="m29.546997,94.352997l-5.309998,0l0,-45.839996c0,-13.292999 10.813995,-24.108002 24.106003,-24.108002c13.293991,0 24.108002,10.815002 24.108002,24.108002s-10.814011,24.108002 -24.108002,24.108002l-10.436996,0l0,-5.310005l10.437988,0c10.366013,0 18.799011,-8.433998 18.799011,-18.798996s-8.432999,-18.799 -18.799011,-18.799c-10.363998,0 -18.79599,8.434002 -18.79599,18.799l0,45.840996l-0.001007,0z" fill="#498E10"/>
    </g>
    <g id="svg_38">
     <path id="svg_39" d="m48.343002,84.292999l0,-5.309998c16.802994,0 30.473007,-13.668999 30.473007,-30.471001c0,-16.801003 -13.670013,-30.471001 -30.473007,-30.471001c-16.802002,0 -30.472008,13.669998 -30.472008,30.471001l0,33.125999l-5.308998,0l0,-33.125c0,-19.729 16.05101,-35.779999 35.781006,-35.779999s35.783005,16.051998 35.783005,35.779999c0,19.728996 -16.052002,35.779999 -35.783005,35.779999l0,0z" fill="#68AA55"/>
    </g>
    <g id="svg_40">
     <path id="svg_41" d="m59.104004,94.628998l-1.202011,-5.170998c19.125015,-4.445999 32.48201,-21.281998 32.48201,-40.945c0,-23.178001 -18.858994,-42.035999 -42.040009,-42.035999c-23.176994,0 -42.033997,18.857998 -42.033997,42.035999l0,19.251999l-5.309998,0l0,-19.251999c0,-26.105 21.238007,-47.346001 47.343002,-47.346001c26.108002,0 47.349991,21.240002 47.349991,47.346001c0.000015,22.145996 -15.04599,41.109001 -36.588989,46.115997l0,0z" fill="#86C859"/>
    </g>
   </g>
  </g>
 </g>
</svg>
